# File created by Blade
# Date/Time:  Thu Sep 25 19:04:16 2014
# Frame Rate: 120.000 fps
#------------------------------------------------------
:FULLY-SPECIFIED
:DEGREES
1921
root 7.120643 17.874621 -12.413933 70.467837 26.084894 20.486520
Spine 27.190290 36.739033 40.541526
Head -3.602683 59.624042 -3.823745
LeftShoulder -23.792779 24.485066 31.779653
LeftArm 3.349158 -10.702769 -31.304743
LeftForeArm -6.101265 -0.000000 7.495294
LeftHand -41.075374 -0.000000 20.275748
LeftHandThumb1 -26.253704 0.000000 33.147579
RightShoulder -1.613692 27.164128 -36.774957
RightArm 6.895309 -17.522872 65.172865
RightForeArm -62.554932 -0.000000 39.283104
RightHand -4.891161 -0.000000 -66.106174
RightHandThumb1 -24.326973 -0.000000 -32.862282
LeftUpLeg -138.126776 5.430712 -33.975669
LeftLeg 95.369699 -0.000000 -0.000000
LeftFoot -12.933336 -26.281278 -12.331399
LeftToeBase 3.816005 -0.000000 -0.000000
RightUpLeg -24.180721 -77.992776 -47.694206
RightLeg 1.777778 -0.000000 -0.000000
RightFoot 10.104429 -14.019553 20.041092
RightToeBase 10.931673 -0.000000 -0.000000
1922
root 7.111977 17.891742 -12.415459 70.592204 26.054579 20.545701
Spine 27.199808 36.748945 40.582800
Head -3.490898 59.578056 -3.746686
LeftShoulder -23.759865 24.471616 31.713973
LeftArm 3.337259 -10.676767 -31.342399
LeftForeArm -6.569580 0.000000 7.530511
LeftHand -40.977008 0.000000 20.264922
LeftHandThumb1 -26.253704 0.000000 33.147579
RightShoulder -1.642870 27.189025 -36.863763
RightArm 6.827108 -17.595161 65.122135
RightForeArm -62.649579 -0.000000 39.474568
RightHand -4.930223 -0.000000 -66.059806
RightHandThumb1 -24.326973 -0.000000 -32.862282
LeftUpLeg -138.115542 5.357436 -34.013970
LeftLeg 95.248959 -0.000000 -0.000000
LeftFoot -12.910271 -26.329355 -12.421671
LeftToeBase 4.145377 -0.000000 -0.000000
RightUpLeg -24.453413 -78.068468 -47.451856
RightLeg 1.736628 -0.000000 -0.000000
RightFoot 10.120581 -14.049899 20.001329
RightToeBase 10.895195 -0.000000 -0.000000
1923
root 7.104760 17.906494 -12.416303 70.700084 26.025135 20.607174
Spine 27.223637 36.756598 40.621174
Head -3.350086 59.540496 -3.636160
LeftShoulder -23.713016 24.485637 31.689458
LeftArm 3.323852 -10.723115 -31.471591
LeftForeArm -6.638410 -0.000000 7.600676
LeftHand -40.923412 -0.000000 20.253308
LeftHandThumb1 -26.253704 0.000000 33.147579
RightShoulder -1.697355 27.191648 -36.944243
RightArm 6.775961 -17.676595 65.072122
RightForeArm -62.702168 -0.000000 39.682270
RightHand -4.994977 -0.000000 -65.919543
RightHandThumb1 -24.326973 -0.000000 -32.862282
LeftUpLeg -138.093689 5.290549 -34.058259
LeftLeg 95.149139 -0.000000 -0.000000
LeftFoot -12.893375 -26.363446 -12.471962
LeftToeBase 4.229777 -0.000000 -0.000000
RightUpLeg -24.660557 -78.158988 -47.262294
RightLeg 1.672819 -0.000000 -0.000000
RightFoot 10.157590 -14.058050 20.016657
RightToeBase 10.889521 -0.000000 -0.000000
1924
root 7.098632 17.919106 -12.417744 70.797556 25.989827 20.648731
Spine 27.132307 36.758523 40.641717
Head -2.433830 59.523881 -2.837960
LeftShoulder -23.495117 24.672179 31.804579
LeftArm 3.264557 -11.012958 -31.769568
LeftForeArm -6.542579 0.000000 7.684206
LeftHand -41.169220 0.000000 20.582104
LeftHandThumb1 -26.253704 0.000000 33.147579
RightShoulder -1.498256 27.082491 -36.906981
RightArm 6.710473 -17.533535 65.015416
RightForeArm -62.870209 -0.000000 39.863108
RightHand -5.083769 -0.000000 -65.796490
RightHandThumb1 -24.326973 -0.000000 -32.862282
LeftUpLeg -138.092646 5.241819 -34.104580
LeftLeg 95.089172 -0.000000 -0.000000
LeftFoot -12.876024 -26.384385 -12.558713
LeftToeBase 4.178723 -0.000000 -0.000000
RightUpLeg -24.965808 -78.257606 -46.976093
RightLeg 1.609977 -0.000000 -0.000000
RightFoot 10.207297 -14.037907 20.029013
RightToeBase 10.876096 -0.000000 -0.000000
1925
root 7.091892 17.931719 -12.417201 70.885772 25.966072 20.689773
Spine 27.202384 36.720030 40.673474
Head -2.630376 59.510498 -3.051865
LeftShoulder -23.558328 24.528624 31.787289
LeftArm 3.233102 -11.005835 -31.887287
LeftForeArm -6.558305 0.000000 7.722925
LeftHand -41.137271 0.000000 20.630133
LeftHandThumb1 -26.253704 0.000000 33.147579
RightShoulder -1.630612 27.096013 -37.048099
RightArm 6.782433 -17.498091 65.079820
RightForeArm -63.075128 0.000000 39.963634
RightHand -5.164856 0.000000 -65.682964
RightHandThumb1 -24.326973 -0.000000 -32.862282
LeftUpLeg -138.084025 5.193109 -34.158713
LeftLeg 94.997007 -0.000000 -0.000000
LeftFoot -12.850195 -26.432217 -12.600697
LeftToeBase 4.210420 -0.000000 -0.000000
RightUpLeg -25.233143 -78.354549 -46.702409
RightLeg 1.529532 -0.000000 -0.000000
RightFoot 10.245383 -14.010704 20.020005
RightToeBase 10.919888 -0.000000 -0.000000
1926
root 7.084697 17.942249 -12.416683 70.960528 25.965515 20.707193
Spine 27.217488 36.680719 40.736716
Head -2.432735 59.515172 -2.911460
LeftShoulder -23.550599 24.507718 31.794713
LeftArm 3.233607 -11.054754 -32.036954
LeftForeArm -6.559151 -0.000000 7.676273
LeftHand -40.995051 -0.000000 20.541732
LeftHandThumb1 -26.253704 0.000000 33.147579
RightShoulder -1.615742 27.089043 -37.122788
RightArm 6.776250 -17.363416 65.133105
RightForeArm -63.289499 -0.000000 40.091616
RightHand -5.200731 -0.000000 -65.563314
RightHandThumb1 -24.326973 -0.000000 -32.862282
LeftUpLeg -138.092333 5.151162 -34.193195
LeftLeg 94.916264 -0.000000 -0.000000
LeftFoot -12.803841 -26.484111 -12.664891
LeftToeBase 4.405657 -0.000000 -0.000000
RightUpLeg -25.576377 -78.473694 -46.318326
RightLeg 1.442983 -0.000000 -0.000000
RightFoot 10.293761 -13.946350 20.086916
RightToeBase 10.906757 -0.000000 -0.000000
1927
root 7.077707 17.951617 -12.414703 71.031130 25.971955 20.708812
Spine 27.213245 36.645255 40.800520
Head -2.161661 59.515619 -2.725300
LeftShoulder -23.545660 24.538273 31.770725
LeftArm 3.254808 -11.186244 -32.160290
LeftForeArm -6.638399 -0.000000 7.619401
LeftHand -40.850395 0.000000 20.544009
LeftHandThumb1 -26.253704 0.000000 33.147579
RightShoulder -1.564435 27.121240 -37.141334
RightArm 6.728017 -17.310472 65.135146
RightForeArm -63.467808 -0.000000 40.250306
RightHand -5.323521 -0.000000 -65.483992
RightHandThumb1 -24.326973 -0.000000 -32.862282
LeftUpLeg -138.118529 5.124823 -34.222944
LeftLeg 94.848164 -0.000000 -0.000000
LeftFoot -12.827354 -26.548754 -12.584488
LeftToeBase 4.474098 -0.000000 -0.000000
RightUpLeg -25.958233 -78.583802 -45.886678
RightLeg 1.369555 -0.000000 -0.000000
RightFoot 10.330258 -13.886721 20.180013
RightToeBase 10.828204 -0.000000 -0.000000
1928
root 7.072140 17.960975 -12.416556 71.122782 25.955326 20.720484
Spine 27.124031 36.619199 40.794259
Head -1.595062 59.480275 -2.227018
LeftShoulder -23.442371 24.622355 31.806061
LeftArm 3.176563 -11.415911 -32.309926
LeftForeArm -6.684315 0.000000 7.599140
LeftHand -40.759227 -0.000000 20.418668
LeftHandThumb1 -26.253704 0.000000 33.147579
RightShoulder -1.403691 27.122414 -37.099463
RightArm 6.647101 -17.133359 65.157756
RightForeArm -63.728011 -0.000000 40.400348
RightHand -5.407627 -0.000000 -65.389763
RightHandThumb1 -24.326973 -0.000000 -32.862282
LeftUpLeg -138.156451 5.074045 -34.275754
LeftLeg 94.789323 -0.000000 -0.000000
LeftFoot -12.784861 -26.567910 -12.615122
LeftToeBase 4.450984 -0.000000 -0.000000
RightUpLeg -25.982010 -78.528616 -45.820246
RightLeg 1.225666 -0.000000 -0.000000
RightFoot 10.342546 -14.026909 20.248276
RightToeBase 10.837234 -0.000000 -0.000000
1929
root 7.064593 17.966930 -12.414584 71.187675 25.965727 20.713735
Spine 27.100342 36.577200 40.836289
Head -1.398937 59.460933 -2.103427
LeftShoulder -23.409258 24.636145 31.763341
LeftArm 3.091131 -11.692102 -32.382191
LeftForeArm -6.901105 -0.000000 7.609321
LeftHand -40.879142 0.000000 20.646564
LeftHandThumb1 -26.253704 0.000000 33.147579
RightShoulder -1.317206 27.219798 -37.109126
RightArm 6.523478 -17.072723 65.199546
RightForeArm -63.883787 0.000000 40.562190
RightHand -5.455480 -0.000000 -65.334858
RightHandThumb1 -24.326973 -0.000000 -32.862282
LeftUpLeg -138.197513 5.053440 -34.308264
LeftLeg 94.754707 -0.000000 -0.000000
LeftFoot -12.770679 -26.599760 -12.584400
LeftToeBase 4.283479 -0.000000 -0.000000
RightUpLeg -26.538027 -78.691197 -45.241195
RightLeg 1.216045 -0.000000 -0.000000
RightFoot 10.364886 -13.899970 20.330219
RightToeBase 10.818324 -0.000000 -0.000000
1930
root 7.057714 17.973331 -12.412909 71.262136 25.964072 20.708725
Spine 27.101254 36.552269 40.865375
Head -1.495410 59.389619 -2.240165
LeftShoulder -23.422987 24.582360 31.655341
LeftArm 2.992898 -12.110745 -32.390569
LeftForeArm -6.930386 -0.000000 7.656943
LeftHand -40.946475 -0.000000 20.820880
LeftHandThumb1 -26.253704 0.000000 33.147579
RightShoulder -1.292569 27.336542 -37.161946
RightArm 6.391959 -16.979440 65.296409
RightForeArm -64.059485 -0.000000 40.721210
RightHand -5.458619 -0.000000 -65.270997
RightHandThumb1 -24.326973 -0.000000 -32.862282
LeftUpLeg -138.245076 5.023213 -34.356497
LeftLeg 94.710403 -0.000000 -0.000000
LeftFoot -12.768180 -26.634417 -12.572148
LeftToeBase 4.489194 -0.000000 -0.000000
RightUpLeg -26.977734 -78.786000 -44.793381
RightLeg 1.204103 -0.000000 -0.000000
RightFoot 10.380158 -13.845107 20.393344
RightToeBase 10.753012 -0.000000 -0.000000
1931
root 7.051549 17.979326 -12.413175 71.334459 25.955172 20.715427
Spine 27.138067 36.534246 40.873216
Head -1.904411 59.290035 -2.632384
LeftShoulder -23.481635 24.519620 31.562157
LeftArm 2.950505 -12.457444 -32.420974
LeftForeArm -6.968219 -0.000000 7.651414
LeftHand -40.997702 -0.000000 20.868170
LeftHandThumb1 -26.253704 0.000000 33.147579
RightShoulder -1.373070 27.447410 -37.246772
RightArm 6.291561 -16.871760 65.421396
RightForeArm -64.267849 -0.000000 40.919854
RightHand -5.495927 -0.000000 -65.097991
RightHandThumb1 -24.326973 -0.000000 -32.862282
LeftUpLeg -138.279444 4.987469 -34.402326
LeftLeg 94.665568 -0.000000 -0.000000
LeftFoot -12.751009 -26.658519 -12.560984
LeftToeBase 4.424739 -0.000000 -0.000000
RightUpLeg -27.223051 -78.816328 -44.556319
RightLeg 1.193171 -0.000000 -0.000000
RightFoot 10.360606 -13.867181 20.456031
RightToeBase 10.754861 -0.000000 -0.000000
1932
root 7.042339 17.985728 -12.413079 71.326071 25.896035 20.625050
Spine 27.285617 36.555230 40.918505
Head -2.182899 59.225687 -2.910413
LeftShoulder -23.467123 24.461154 31.526794
LeftArm 2.837401 -12.825279 -32.491201
LeftForeArm -6.811780 -0.000000 7.667000
LeftHand -40.877041 0.000000 20.641076
LeftHandThumb1 -26.253704 0.000000 33.147579
RightShoulder -1.497431 27.387609 -37.260310
RightArm 6.554034 -16.946272 65.312523
RightForeArm -64.258975 0.000000 40.956879
RightHand -5.510412 -0.000000 -65.093014
RightHandThumb1 -24.326973 -0.000000 -32.862282
LeftUpLeg -138.351899 5.052591 -34.485177
LeftLeg 94.631647 -0.000000 -0.000000
LeftFoot -12.759467 -26.636032 -12.431256
LeftToeBase 4.260877 -0.000000 -0.000000
RightUpLeg -27.620243 -78.689221 -44.200049
RightLeg 1.197322 -0.000000 -0.000000
RightFoot 10.289183 -13.968567 20.542761
RightToeBase 10.725342 -0.000000 -0.000000
